<svg xmlns="http://www.w3.org/2000/svg" fill="white" viewBox="0 0 252287 333333" shape-rendering="geometricPrecision" text-rendering="geometricPrecision" image-rendering="optimizeQuality" fill-rule="evenodd" clip-rule="evenodd"><path d="M39613 118664h42803c13204 0 16556 9125 16556 20904 0 5475-796 11633-1567 17595-1275 9866-2476 19148 248 22528 4537 5632 11078 12181 18073 19186 17326 17350 37362 37414 38832 55371 899 10993 1088 25137-900 38235-1533 10097-4369 19617-9174 26731-2463 3644-5344 6889-9027 9378-3714 2510-8193 4210-13801 4718-90 8-179 12-268 12v11H49046c-131 0-259-8-386-24-7704-431-14650-2183-20493-5783-5984-3687-10727-9242-13837-17204-85-218-143-441-175-663-6574-32191-9249-64284-6108-95928 3154-31778 12163-63073 28958-93520 541-984 1557-1541 2607-1543v-5zM12878 230140c49231 11699 75827-26058 120133-4346-6528-7735-14259-15478-21498-22727-7110-7119-13758-13776-18491-19652-4305-5341-2948-15839-1506-26996 736-5694 1497-11576 1497-16850 0-8422-2146-14946-10598-14946H41373c-15849 29228-24391 59237-27414 89691-522 5262-880 10538-1082 15826zM125116 18906l-320 37700c-11 1353-925 2487-2166 2835l1 5c-9099 2573-17097 6037-23222 11441-5971 5269-10256 12482-12177 22675v12896c0 1646-1334 2980-2979 2980H41025c-2565 233-4647-339-6230-1964-1463-1501-2241-3759-2283-6969-1-105 3-207 13-309 972-10581-1182-18474-6194-24624-5139-6306-13368-10984-24371-14967-1543-559-2339-2263-1780-3806l13-34h-1c5937-15732 15109-25782 26596-32016 11333-6150 24842-8496 39672-8899 9263-251 18550-428 27878-457 9330-30 18639 87 27916 423 1639 58 2921 1433 2863 3072l-1 18zm-6237 35443l278-32695c-8296-261-16567-352-24819-326-9210 29-18463 206-27738 457-13930 378-26546 2543-36972 8201-9591 5204-17400 13448-22769 26113 10570 4126 18669 9083 24081 15726 5993 7354 8600 16581 7510 28753 31 1491 237 2376 605 2754 196 200 674 253 1398 189 161-27 327-41 496-41h40326V93352h11c0-173 15-348 47-524 2157-11816 7145-20211 14143-26386 6401-5648 14401-9356 23403-12092zm12299-36304l232 36241h17723c2500 93 3784-2002 3176-7407V24131c-50-1972-866-3273-2382-3970l-18749-2116zm59013 11761c5126 0 9281 3509 9281 7842s-4155 7842-9281 7842c-5127 0-9282-3509-9282-7842s4156-7842 9282-7842zm52815-785c5126 0 9282 3509 9282 7842s-4156 7842-9282 7842c-5127 0-9282-3509-9282-7842s4155-7842 9282-7842zm-1043 29547c5126 0 9281 3509 9281 7842s-4155 7842-9281 7842c-5127 0-9282-3509-9282-7842s4155-7842 9282-7842zm-25628-13856c5126 0 9281 3509 9281 7842s-4156 7842-9281 7842c-5127 0-9282-3509-9282-7842 0-4332 4156-7842 9282-7842zM243002 1c5126 0 9282 3509 9282 7842s-4156 7842-9282 7842-9282-3509-9282-7842S237876 1 243002 1zm-26405 14902c5126 0 9281 3509 9281 7842s-4156 7842-9281 7842c-5127 0-9282-3509-9282-7842 0-4332 4156-7842 9282-7842zM100073 96696c3159-12605 10693-20911 23378-24154 2859 20295 9020 36587 17651 49855 5270 7437-3285 15109-9446 7276l-19970-32668-11613-308z" fill-rule="nonzero"/></svg>