<svg xmlns="http://www.w3.org/2000/svg" fill="white" viewBox="0 0 347163 244376" shape-rendering="geometricPrecision" text-rendering="geometricPrecision" image-rendering="optimizeQuality" fill-rule="evenodd" clip-rule="evenodd"><path d="M4479 87207c-6051-12844-6072-24269 559-34130 7137-9206 20092-15504 39165-18743 32806-266 36362-28492 69041-33660 36436-5762 34390 27503 73631 20792 13735-1449 33752 13587 39548 36550 5704 22597-3614 28285-8366 47636-3530 14375-3270 28780-1249 43099 1033 12578-4483 21365-17624 25737-4326 1873-8660 3642-13003 5311 133-4769 74-9336-75-13536l-29 1c-24-659-86-1315-187-1966v-29780c0-7640-3129-14588-8152-19612-5022-5023-11971-8152-19611-8152h-773c-3213 0-6307 580-9183 1641l-234-237c-5023-5023-11972-8152-19612-8152h-773c-3065 0-6016 518-8767 1469-487-530-995-1042-1523-1536-5240-4897-12312-7666-19863-7666-1597 0-3163 141-4686 410-1173-1942-2575-3729-4169-5323-4566-4566-10724-7567-17546-8075-878-143-1780-218-2698-218-6639 0-12771 2477-17518 6554-537 419-1055 875-1549 1370-4882 4882-7924 11638-7924 19067v11133c-7895-5126-15562-7904-22915-7546-4762-8007-9991-14620-13915-22441zm236319 79546c-3847 45-7004-3037-7049-6885-45-3847 3037-7004 6885-7049 7129-100 15954 186 25331 2050 9628 1912 19902 5474 29720 11931 3213 2112 4107 6430 1994 9644-2112 3213-6430 4107-9644 1994-8045-5291-16629-8242-24748-9855-8370-1663-16188-1919-22490-1831zm-2532-55317c-3802-664-6346-4285-5682-8087s4285-6346 8087-5682c18855 3347 32807 7642 45120 14084 12331 6451 22697 14891 34421 26548 2731 2716 2743 7132 27 9862-2716 2731-7132 2743-9862 27-10781-10720-20163-18402-31034-24089-10889-5697-23598-9560-41077-12663zm9593-54271c-3802-618-6383-4203-5764-8005 618-3802 4203-6383 8005-5764 18939 3085 36357 9832 52097 19585 16436 10184 30984 23595 43472 39493 2384 3033 1858 7424-1175 9808s-7424 1858-9808-1175c-11538-14688-24865-27008-39811-36269-14201-8799-29921-14887-47016-17672zM68158 95939h773c6045 0 11035 4991 11035 11035v42024h7169v-29732c0-5623 4639-10262 10262-10262 6454 0 11808 4328 11808 11035v29661l352-141h7732v-22562c0-5623 4639-10262 10262-10262h773c6044 0 11035 4991 11035 11035v20665h70l7661-70v-14619c0-5623 4639-10262 10262-10262h773c6044 0 11035 4991 11035 11035v30927c0 351 0 773-70 1125l352 281c703 19891-703 48428-17080 62696-16237 13214-32473 16658-49342 13988-22984-3655-35003-16096-45897-35917l-43157-68390c-2249-5271-1968-8856 281-11176 9700-6326 25584 7100 43157 26077l633-141v-47928c0-5623 4639-10262 10262-10262l-141 141z"/></svg>